<?xml version="1.0" encoding="utf-8"?>
<!-- Generator: Adobe Illustrator 20.1.0, SVG Export Plug-In . SVG Version: 6.00 Build 0)  -->
<svg version="1.1" id="Layer_1" xmlns="http://www.w3.org/2000/svg" xmlns:xlink="http://www.w3.org/1999/xlink" x="0px" y="0px"
	 viewBox="0 0 612 226" style="enable-background:new 0 0 612 226;" xml:space="preserve">
<style type="text/css">
	.st0{fill:#1D428A;}
	.st1{fill:#C8102E;}
	.st2{fill:#231F20;}
</style>
<path class="st0" d="M33.6,16.5c1,0,1.7,0,2.5,0c19.7,0,39.5,0,59.2,0c7.4,0,14.8,0.6,21.9,2.8c3.6,1.1,7.1,2.6,10.1,5
	c4,3.2,6.4,7.2,6.5,12.4c0.1,5.2-2.1,9.2-6.4,12.1c-2.8,1.9-6,3.1-9.2,4.1c-0.9,0.3-1.9,0.7-2.8,1c0,0.2,0,0.3,0,0.5
	c0.7,0.2,1.4,0.3,2.1,0.5c3,0.9,6,1.7,8.9,2.9c1.9,0.8,3.7,2,5.4,3.2c6.9,5.3,7.7,14.3,4,20.9c-1.7,3-4,5.4-6.8,7.5
	c-4.8,3.6-10.3,5.6-16.1,6.8c-6,1.2-12,1.6-18.1,1.7C87,98,79.2,98,71.4,98c-11.8,0-23.6,0-35.4,0c-0.8,0-1.5-0.1-2.4-0.1
	C33.6,70.8,33.6,43.8,33.6,16.5z M55.6,86c0.8,0,1.4,0.1,2,0.1c10.7,0,21.4,0,32.2,0c3.6,0,7.1-0.1,10.7-0.8c2.7-0.5,5.3-1.5,7.6-3
	c5.7-3.8,7.4-14.8-1.6-18.8c-1.2-0.5-2.5-1-3.8-1.3c-3.3-0.9-6.7-1.2-10-1.2c-11.8,0-23.6,0-35.4,0c-0.5,0-1,0.1-1.6,0.1
	C55.6,69.3,55.6,77.5,55.6,86z M55.6,49.6c0.9,0,1.6,0,2.4,0c9.6,0,19.3,0,28.9,0c2.9,0,5.9-0.1,8.8-0.3c3.3-0.3,6.5-0.9,9.4-2.4
	c3.3-1.6,5-4.3,5-8c0.1-3.7-1.6-6.4-4.9-8c-1.2-0.6-2.5-1.1-3.8-1.3c-3.8-0.5-7.6-1.1-11.4-1.1c-10.9-0.2-21.8-0.1-32.8-0.1
	c-0.5,0-1.1,0.1-1.6,0.1C55.6,35.6,55.6,42.4,55.6,49.6z"/>
<path class="st0" d="M357.8,39.7c-1.5,0.4-21,0.5-23.1,0.1c-0.1-0.1-0.2-0.2-0.2-0.3c-1.2-4.1-4-6.7-7.8-8.5c-3.8-1.8-7.9-2.6-12-3
	c-6.4-0.6-12.9-0.6-19.3,0.7c-3.1,0.6-6.1,1.5-8.7,3.3c-1.7,1.1-3,2.5-3.7,4.5c-1,2.9-0.2,5.6,2.2,7.6c1.7,1.4,3.7,2.3,5.8,2.8
	c4.6,1,9.2,1.9,13.9,2.7c10.6,1.7,21.3,3.3,31.9,5c4.2,0.7,8.3,1.9,12.3,3.5c3,1.2,5.9,2.8,8.2,5.2c5.2,5.1,6.2,12.9,2.6,19.2
	c-1.6,2.8-3.8,4.9-6.4,6.8c-5,3.7-10.7,5.9-16.7,7.3c-5.7,1.4-11.4,2-17.2,2.4c-6.3,0.4-12.6,0.3-18.9-0.1c-8.8-0.6-17.4-2-25.6-5.3
	c-3.7-1.5-7.3-3.4-10.4-6.1c-3.4-2.9-5.7-6.5-6.4-11c-0.1-0.4-0.1-0.8-0.1-1.1c0-0.2,0-0.4,0.1-0.7c7.8,0,15.5,0,23.4,0
	c0.2,0.6,0.5,1.1,0.7,1.7c1.3,3.5,3.7,6.1,7,7.8c3,1.5,6.2,2.4,9.5,2.9c8.8,1.3,17.7,1.1,26.5-0.4c2.8-0.5,5.5-1.3,7.9-2.7
	c1.8-1,3.3-2.2,4.3-4c2.1-3.7,1.3-7.6-2.2-9.9c-1.5-1-3.3-1.7-5-2.3c-4.9-1.6-9.9-2.4-15-3.1C304.2,63.2,293,62,282,59.4
	c-3.4-0.8-6.7-1.9-10-3.1c-1.7-0.6-3.3-1.6-4.8-2.7c-8.2-5.8-9.5-16.7-2.9-24.3c3.6-4.1,8.2-6.8,13.3-8.8c5.3-2.1,10.9-3.1,16.6-3.8
	c6-0.7,12.1-1,18.2-0.8c10,0.3,19.8,1.8,29.1,5.7c4.2,1.8,8.2,3.9,11.4,7.3c2.7,2.8,4.4,6.2,5.1,10.1
	C357.9,39.3,357.8,39.5,357.8,39.7z"/>
<path class="st0" d="M212.4,99.5c-6.7-0.1-13.4-0.7-19.8-2.9c-4.2-1.4-8.1-3.6-11.2-6.8c-3.2-3.3-5.2-7.3-6.2-11.7
	c-1.3-5.6-1.6-11.3-0.5-16.9c1.9-9.3,7.5-15.6,16.1-19.3c4.4-1.9,9-2.9,13.7-3.3c7.3-0.7,14.5-0.5,21.8,0.7c3.2,0.5,6.3,1.4,9.3,2.8
	c6.4,2.8,10.7,7.6,12.7,14.3c2.1,7,2.6,14,1.2,21.2c-1.5,8.2-6.2,14-13.6,17.6c-4.5,2.2-9.3,3.3-14.2,3.8
	C218.7,99.2,215.5,99.3,212.4,99.5z M212.2,89.3c2.4-0.2,4.4-0.3,6.4-0.6c7.2-1.1,11.9-5.4,13.5-12.6c0.9-4.2,1.2-8.4,0.4-12.6
	c-1.5-7.6-5.9-12.6-13.5-14.5c-3.9-1-7.8-1-11.8-0.3c-8.1,1.3-13.7,6.7-15.3,14.6c-0.8,4-0.6,8,0.1,12c1.3,7.3,5.7,11.5,12.8,13
	C207.3,88.8,209.9,89,212.2,89.3z"/>
<path class="st0" d="M491.3,63.5c0.1-2.6,0.4-5-0.3-7.3c-1-3.2-3.4-5.2-6.7-6c-1.7-0.4-3.5-0.5-5.3-0.5c-10.5,0-21.1,0-31.6,0
	c-0.7,0-1.5,0-2.4,0c-0.2-3.6-0.2-6.9,0-10.4c0.8,0,1.4-0.1,2-0.1c10.9,0,21.7,0,32.6,0c4.1,0,8.2,0.4,12.1,1.5
	c9.2,2.5,14.7,9.3,15.4,18.8c0.1,1.5,0.2,3.1,0.2,4.6c0,10.3,0,20.7,0,31c0,0.7,0,1.4,0,2.3c-0.7,0.1-1.3,0.2-1.8,0.2
	c-15.1,0-30.3,0-45.4,0c-4,0-7.8-0.9-11.4-2.9c-12.1-6.8-10.2-21.8-1.1-27.8c3.6-2.4,7.7-3.4,12-3.4c9.7,0,19.4,0,29.1,0
	C489.4,63.5,490.2,63.5,491.3,63.5z M491,73.1c-0.5-0.1-0.7-0.2-1-0.2c-8.1,0-16.2,0-24.3,0c-2.1,0-4.1,0.7-5.9,2
	c-4.1,2.9-4,8.1,0.1,10.9c1.9,1.3,4,1.7,6.2,1.7c7.7,0,15.3,0,23,0c0.6,0,1.2-0.1,1.9-0.2C491,82.5,491,77.8,491,73.1z"/>
<path class="st1" d="M521,168.3c-5.5,0-10.6,0-15.9,0c0-0.8-0.1-1.5-0.1-2.3c0-10.4,0-20.8,0-31.2c0-3.8-1.2-5.6-4.8-6.9
	c-1.6-0.5-3.2-0.9-4.9-0.9c-6.1-0.1-12.3,0-18.4,0c-0.3,0-0.6,0.1-1.1,0.1c-0.3,4.6-0.1,9.2-0.1,13.7c0,4.5,0,9.1,0,13.6
	c0,4.6,0,9.2,0,13.7c-1.6,0.6-13.9,0.6-15.8,0.1c0-17.6,0-35.2,0-52.9c0.6,0,1.2-0.1,1.7-0.1c12,0,24,0,36,0c3.5,0,6.9,0.3,10.2,1.2
	c4.2,1.1,7.7,3.4,10.3,6.9c1.8,2.4,2.8,5,2.8,8c0,5.9,0,11.9,0,17.8c0,5.7,0,11.4,0,17C521,166.7,521,167.4,521,168.3z"/>
<path class="st1" d="M419.3,169.3c-5.2-0.1-10.3-0.5-15.3-2.1c-1.3-0.4-2.7-0.9-3.9-1.5c-6-2.7-10.1-7.2-12-13.6
	c-1.8-6-2.1-12.1-0.7-18.2c1.6-7.3,5.9-12.5,12.5-15.8c3.5-1.8,7.3-2.8,11.2-3.3c7.7-1,15.4-0.8,23,1c0.4,0.1,0.9,0.2,1.3,0.4
	c8.5,2.4,13.8,7.8,15.6,16.6c1.2,5.9,1.6,11.8,0.3,17.7c-1.5,6.9-5.4,11.9-11.8,14.9c-3.6,1.8-7.4,2.7-11.4,3.2
	C425.1,169,422.2,169.1,419.3,169.3z M419.2,160.1c2-0.2,3.7-0.3,5.3-0.5c6-1,10-4.3,11.5-10.3c1.1-4,1.3-8.1,0.6-12.1
	c-1.2-6.9-5.2-11.5-12.2-13.1c-3.6-0.8-7.2-0.8-10.8,0.1c-6.7,1.7-10.6,6.1-11.9,12.8c-0.8,3.9-0.5,7.7,0.3,11.6
	c1.2,5.8,4.8,9.3,10.5,10.6C414.8,159.7,417.2,159.8,419.2,160.1z"/>
<path class="st1" d="M126.2,169c-5.3,0.2-10.6-0.3-15.7-1.9c-10.1-3.1-15.5-10-16.8-20.4c-0.5-4.1-0.5-8.1,0.3-12.2
	c1.7-8,6.3-13.5,13.7-16.8c4.3-1.9,8.9-2.9,13.5-3.2c6.6-0.4,13.1-0.3,19.6,1.4c0.8,0.2,1.6,0.4,2.4,0.7c7.8,2.5,12.6,7.7,14.4,15.7
	c1.4,6.2,1.8,12.4,0.3,18.6c-1.6,6.9-5.6,11.8-12,14.7c-4.7,2.2-9.7,3.1-14.8,3.4C129.5,169.1,127.8,169,126.2,169z M126,160.1
	c2-0.2,3.7-0.3,5.3-0.5c6-1,10-4.2,11.6-10.2c1.1-4.2,1.4-8.4,0.5-12.7c-1.4-6.8-5.4-11.2-12.2-12.7c-3.6-0.8-7.2-0.7-10.8,0.2
	c-6.8,1.8-10.6,6.3-11.9,13c-0.7,3.7-0.4,7.4,0.3,11c1.2,6,4.8,9.6,10.7,10.9C121.7,159.7,124,159.8,126,160.1z"/>
<path class="st1" d="M529,151.6c4.6,0,9,0,13.6,0c0.2,0.7,0.4,1.3,0.6,2c0.7,2.3,2.1,4,4.3,4.8c1.5,0.6,3.1,1.1,4.8,1.3
	c4.2,0.6,8.4,0.6,12.5-0.5c1.2-0.3,2.4-0.8,3.5-1.5c3.4-2.3,3-6.4-0.7-8c-3-1.3-6.2-1.8-9.4-2.4c-5.2-1-10.4-2-15.6-3.1
	c-1.7-0.4-3.4-1-5.1-1.7c-9.5-4.2-9.1-15.1-4.7-20.3c2.5-3,5.7-5,9.5-6.2c6-1.9,12.2-2.2,18.4-1.7c4.7,0.4,9.2,1.6,13.3,3.9
	c4.3,2.4,7.2,5.8,8.2,10.7c0.2,0.8,0.2,1.6,0.2,2.6c-4.7,0-9.2,0-13.7,0c-0.1-0.2-0.2-0.3-0.2-0.5c-0.6-3.5-2.8-5.3-6-6.3
	c-4.6-1.4-9.2-1.4-13.8-0.2c-1.1,0.3-2.3,0.8-3.3,1.5c-3,2.2-2.7,6,0.7,7.5c1.7,0.8,3.6,1.2,5.5,1.6c6,1.2,12,2.2,18,3.5
	c2.4,0.5,4.8,1.3,7.1,2.3c9.7,4.2,9.7,15.6,3.9,21.3c-3.6,3.5-7.9,5.4-12.6,6.4c-8.1,1.5-16.1,1.4-24.1-0.6
	c-3.4-0.9-6.6-2.3-9.4-4.6c-3.3-2.6-5.1-6-5.5-10.1c0-0.3,0-0.6,0-1C528.8,152.1,528.9,151.9,529,151.6z"/>
<path class="st1" d="M85,131.5c-4.4,0-8.8,0-13.4,0c-0.1-0.2-0.2-0.5-0.2-0.8c-0.6-2.8-2.3-4.6-4.9-5.6c-3.1-1.3-6.5-1.6-9.8-1.3
	c-2,0.1-3.9,0.6-5.8,1c-0.6,0.1-1.2,0.5-1.7,0.8c-1.7,1-2.8,2.4-2.7,4.5c0.1,2.1,1.5,3.3,3.3,3.8c2.9,0.8,5.8,1.5,8.7,2.1
	c5.2,1.1,10.5,2,15.8,3.1c2.1,0.5,4.2,1.3,6.1,2.2c8.9,4.3,8.9,15,3.7,20.5c-2.9,3.1-6.5,5.1-10.6,6.2c-6.2,1.8-12.6,1.9-19,1.4
	c-4.2-0.3-8.2-1.2-12-2.9c-2.8-1.3-5.4-2.9-7.4-5.4c-2.2-2.7-3.2-5.7-3.1-9.3c4.6,0,9.1,0,13.7,0c0.1,0.4,0.3,0.9,0.4,1.4
	c0.7,2.8,2.5,4.7,5.2,5.7c1.3,0.5,2.7,0.8,4.1,1c4.2,0.5,8.4,0.5,12.5-0.6c1.3-0.3,2.5-0.9,3.6-1.6c2.4-1.6,3.4-6-0.8-7.8
	c-3.1-1.3-6.4-1.9-9.6-2.5c-5.2-1-10.4-2-15.6-3.1c-1.7-0.4-3.4-1-5.1-1.7c-9.1-4.1-9.3-14.6-4.8-20.2c2.2-2.8,5.1-4.7,8.3-5.9
	c3.2-1.2,6.5-1.8,9.9-2.1c6.1-0.5,12.1-0.2,18,1.7c2.7,0.9,5.3,2.1,7.6,3.9c3.4,2.6,5.4,6.1,5.7,10.4c0,0.3,0,0.5,0,0.8
	C85.2,131.1,85.1,131.2,85,131.5z"/>
<path class="st1" d="M223.7,115.4c4.8,0,9.3,0,14,0c0.1,0.8,0.2,1.5,0.2,2.2c0.1,10.1,0.1,20.2,0.2,30.3c0,0.9,0,1.8,0.2,2.7
	c0.8,4.9,4.2,8.2,9.4,8.9c3.1,0.4,6.1,0.3,9.1-0.4c4-0.9,6.6-3.5,7-7.6c0.4-3.7,0.4-7.5,0.4-11.3c0-7.7,0-15.5-0.1-23.2
	c0-0.6,0.1-1.1,0.1-1.7c4.6,0,9.1,0,13.9,0c0,0.8,0,1.5,0,2.2c0,11.1,0,22.1,0,33.2c0,1.4-0.1,2.8-0.3,4.2c-0.9,5-3.8,8.5-8.4,10.7
	c-3.2,1.5-6.5,2.3-10,2.6c-4.5,0.3-9.1,0.5-13.6,0.4c-4.2-0.1-8.2-1.1-12-2.9c-6.5-3.1-9.8-8.2-9.9-15.5c0-10.8-0.2-21.6-0.3-32.4
	C223.7,117.1,223.7,116.4,223.7,115.4z"/>
<path class="st0" d="M391.6,49.8c-9.1,0-17.9,0-26.8,0c0-3.5,0-6.8,0-10.1c1.4-0.4,68-0.5,70.6-0.1c0,3.3,0,6.7,0,10.2
	c-9,0-17.9,0-27,0c-0.2,2.8-0.1,5.4-0.1,8c0,2.7,0,5.4,0,8c0,2.6,0,5.2,0,7.9s0,5.2,0,7.9c0,2.7,0,5.4,0,8c0,2.6,0,5.2,0,7.8
	c-1.4,0.5-13.6,0.6-16.7,0.2C391.6,81.8,391.6,66,391.6,49.8z"/>
<path class="st0" d="M583.6,49.7c-9.1,0-18,0-27.1,0c0,16.1,0,32,0,48c-5.6,0-11,0-16.6,0c-0.1-0.8-0.2-1.6-0.2-2.4
	c0-14.3,0-28.6,0-42.9c0-0.8-0.1-1.6-0.1-2.7c-4.5,0-8.9,0-13.3,0c-4.3,0-8.7,0-13,0c-0.5-1.8-0.2-3.5-0.3-5.1c-0.1-1.7,0-3.3,0-4.9
	c1.5-0.4,67.7-0.6,70.6-0.2C583.6,42.7,583.6,46,583.6,49.7z"/>
<path class="st1" d="M327.8,124.2c0,14.8,0,29.3,0,43.9c-5.1,0-10.2,0-15.4,0c0-0.7-0.1-1.4-0.1-2.1c0-13.1,0-26.2,0-39.3
	c0-0.8,0-1.5,0-2.5c-8.2,0-16.3,0-24.5,0c0-3.1,0-5.9,0-8.9c21.7,0,43.3,0,65,0c0,2.9,0,5.7,0,8.8c-2.7,0-5.4,0-8.1,0
	c-2.8,0-5.6,0-8.4,0C333.5,124.2,330.8,124.2,327.8,124.2z"/>
<path class="st1" d="M216.5,168.2c-16.3,0-32.5,0-48.7,0c-0.4-1.5-0.6-50.3-0.2-53c4.9,0,9.9,0,15.1,0c0,4.7,0,9.4,0,14.1
	c0,4.7,0,9.3,0,14c0,4.7,0,9.4,0,14.4c11.3,0,22.5,0,33.7,0C216.5,161.3,216.5,164.6,216.5,168.2z"/>
<path class="st0" d="M147.5,39.7c5.5,0,10.9,0,16.4,0c0,19.2,0,38.3,0,57.6c-5.5,0-10.9,0-16.3,0c0,0-0.1-0.1-0.1-0.1
	c0,0-0.1-0.1-0.1-0.1c0-0.4-0.1-0.8-0.1-1.1c0-18.5,0-37,0-55.5C147.3,40.2,147.4,40,147.5,39.7z"/>
<path class="st1" d="M377.8,168c-5.4,0-10.6,0-15.9,0c-0.4-1.4-0.6-48.8-0.2-52.4c1.3-0.4,13.3-0.5,16-0.2
	C378.1,116.8,378.2,164.5,377.8,168z"/>
<path class="st2" d="M210.4,186.5c0.6,0,1.1-0.1,1.6-0.1c5.3,0,10.6,0,15.9,0c2.1,0,3.9,0.6,5.4,2.1c2.8,2.9,2.2,6.8-1.5,8.5
	c-0.9,0.4-1.8,0.6-2.9,1c2.1,2.6,4.2,5,6.5,7.8c-2.2,0-4.1,0.1-5.9,0c-0.5,0-1-0.6-1.3-1c-1.6-1.8-3.1-3.7-4.7-5.6
	c-0.6-0.8-1.3-1.1-2.3-1.1c-1.8,0.1-3.5,0-5.5,0c0,2.6,0,5,0,7.5c-1.9,0-3.6,0-5.4,0C210.4,199.3,210.4,192.9,210.4,186.5z
	 M215.9,195.3c3,0,5.7,0.1,8.4,0c1,0,2-0.5,2.8-1c1.5-1,1.5-3-0.1-4c-0.8-0.5-1.9-0.8-2.9-0.9c-2.4-0.1-4.8-0.1-7.3-0.1
	c-0.4,0-0.7,0.1-1.1,0.2C215.9,191.4,215.9,193.2,215.9,195.3z"/>
<path class="st2" d="M360.8,186.6c0.2-0.1,0.2-0.2,0.3-0.2c6.1,0,12.1,0,18.2,0c1.4,0,2.6,0.6,3.7,1.5c3.6,2.9,2.9,7.5-1.4,9.3
	c-0.7,0.3-1.4,0.5-2.4,0.8c1.1,1.4,2.2,2.6,3.2,3.8c1,1.2,2,2.4,3.4,4c-2.3,0-4.1,0.1-5.9,0c-0.5,0-1-0.5-1.3-1
	c-1.6-1.8-3.2-3.7-4.7-5.6c-0.6-0.8-1.3-1.1-2.3-1.1c-1.8,0.1-3.5,0-5.5,0c0,2.6,0,5,0,7.5c-1.8,0-3.5,0-5.1,0
	C360.6,204.3,360.5,190.4,360.8,186.6z M366.2,189.4c0,2,0,3.9,0,5.8c3,0,5.8,0.1,8.7,0c0.8,0,1.7-0.4,2.5-0.9
	c1.6-1,1.6-3.1-0.1-4.1c-0.7-0.4-1.5-0.7-2.3-0.8C372.1,189.3,369.3,189.4,366.2,189.4z"/>
<path class="st2" d="M411.5,189.8c0-1.2,0-2.1,0-3.2c0.5-0.1,1-0.1,1.5-0.1c4,0,7.9-0.1,11.9,0c1.6,0,3.3,0.3,4.9,0.8
	c2.5,0.8,4.1,2.7,4.2,5.4c0.1,4.2,0,8.4,0,12.7c-0.5,0.1-1,0.2-1.5,0.2c-5.4,0-10.7,0-16.1,0c-1.6,0-3-0.3-4.4-1.2
	c-3-2-3.2-6.1-0.3-8.2c1.3-1,2.7-1.3,4.3-1.3c3.4,0,6.8,0,10.1,0c0.6,0,1.2-0.1,1.8-0.1c0.4-3.1-0.9-4.9-3.9-5c-3.5-0.1-7,0-10.5,0
	C412.9,189.8,412.2,189.8,411.5,189.8z M428.1,202.6c0-1.8,0-3.3,0-5c-3.3,0-6.5,0-9.6,0c-0.2,0-0.4,0.1-0.6,0.1
	c-1.4,0.4-2.3,1.4-2.2,2.5c0.1,1.2,1.2,2.1,2.7,2.3c0.3,0,0.6,0,1,0c1.5,0,3.1,0,4.6,0C425.3,202.6,426.6,202.6,428.1,202.6z"/>
<path class="st2" d="M322.9,206.3c-2.3-0.4-4.7-0.6-6.9-1.2c-3.8-1.1-5.9-3.9-6.1-7.9c-0.1-1.3-0.1-2.6,0.2-3.8
	c0.7-3.1,2.7-5.1,5.6-6.1c5-1.7,10-1.6,15,0c2.8,0.9,4.5,2.9,4.9,5.8c0.2,1.7,0.3,3.6,0.1,5.3c-0.4,3.4-2.5,5.5-5.7,6.6
	C327.6,205.8,325.3,206,322.9,206.3z M323,203.1c1.1-0.2,2.4-0.3,3.5-0.7c1.5-0.5,2.5-1.5,3-3c0.6-1.7,0.8-3.3,0.4-5.1
	c-0.5-2.5-2-4.1-4.5-4.8c-0.9-0.3-1.9-0.4-2.8-0.4c-3.6-0.1-6.4,1.7-7,4.7c-0.3,1.5-0.2,3.2,0.1,4.7c0.3,2,1.7,3.3,3.6,3.8
	C320.5,202.8,321.7,202.9,323,203.1z"/>
<path class="st2" d="M173.1,206.2c-2.3-0.4-4.6-0.5-6.8-1.1c-4-1.1-6.1-4-6.4-8.1c-0.3-4.6,1.4-7.8,5.3-9.4c1.8-0.7,3.8-1.1,5.7-1.3
	c3.2-0.4,6.4-0.1,9.5,0.9c2.8,0.9,4.7,2.8,5.2,5.8c0.3,1.9,0.3,3.8,0.1,5.7c-0.4,3-2.3,5-5.1,6.2C178.2,205.8,175.7,206,173.1,206.2
	z M173.4,203.1c1-0.2,2.2-0.3,3.3-0.7c1.4-0.4,2.4-1.4,3-2.8c0.8-1.9,0.8-3.9,0.3-5.8c-0.6-2.3-2.2-3.7-4.5-4.3
	c-1.6-0.4-3.3-0.5-4.9-0.1c-2.8,0.6-4.7,2.7-5,5.6c-0.1,0.8-0.1,1.7,0,2.5c0.3,2.9,1.7,4.5,4.6,5.1
	C171.2,202.8,172.2,202.9,173.4,203.1z"/>
<path class="st2" d="M260.5,186.6c0.6,0,1.1-0.1,1.5-0.1c5,0,10,0,14.9,0c1.7,0,3.3,0.3,4.8,1.1c3.8,2.1,4.7,7.3,0.3,9.9
	c-1.6,1-3.4,1.5-5.3,1.5c-2.9,0-5.7,0-8.6,0c-0.6,0-1.2,0-2.1,0c0,2.3,0,4.4,0,6.7c-1.9,0.2-3.7,0.2-5.5,0
	C260.5,199.3,260.5,193,260.5,186.6z M266.1,195.9c3.1,0,6,0.1,9,0c0.7,0,1.5-0.4,2.1-0.8c2-1.3,1.9-3.7-0.2-4.8
	c-0.9-0.5-2-0.7-3.1-0.8c-2.2-0.1-4.3,0-6.5,0c-0.4,0-0.8,0.1-1.3,0.2C266.1,191.7,266.1,193.7,266.1,195.9z"/>
<path class="st2" d="M68.7,186.4c2.1,0,3.9,0,5.6,0c2.9,0,5.7,0,8.6,0c1.1,0,2.3,0.1,3.4,0.3c3,0.6,4.9,2.9,4.9,6
	c0,3.8,0,7.5,0,11.3c0,0.4,0,0.9-0.1,1.5c-0.9,0-1.8,0.1-2.7,0.1c-0.9,0-1.8,0-2.8,0c-0.1-0.7-0.1-1.3-0.1-1.8c0-3.3,0-6.6,0-10
	c0-2.5-1.2-4-3.8-4.1c-2.3-0.1-4.7,0-7.3,0c-0.2,5.2,0,10.4-0.1,15.6c-1.8,0.5-3.6,0.2-5.6,0.2C68.7,199.2,68.8,193,68.7,186.4z"/>
<path class="st2" d="M552.6,205.5c0-6.3,0-12.6,0-18.9c0.4-0.1,0.6-0.2,0.8-0.2c4.2,0,8.4-0.1,12.6,0.1c4.5,0.2,7.6,2.6,8.7,6.7
	c0.7,2.6,0.6,5.2-0.5,7.7c-1.3,2.9-3.6,4.7-6.8,4.7c-4.7,0.1-9.3,0.1-14,0.1C553.2,205.7,552.9,205.5,552.6,205.5z M557.9,189.5
	c0,4.5,0,8.7,0,13.2c2.9,0.1,5.7,0.3,8.6-0.1c1.2-0.2,2.1-1,2.6-2.1c1.4-3,1.3-5.9-0.3-8.8c-0.7-1.4-2-2.1-3.6-2.2
	C562.9,189.4,560.5,189.5,557.9,189.5z"/>
<path class="st2" d="M512.3,197.6c0.2,3,2.3,4.9,5.1,4.9c2.8,0.1,5.6,0,8.4,0c0.7,0,1.4,0,2.2,0c0,1,0,1.8,0,2.9
	c-0.4,0-0.9,0.2-1.3,0.2c-3.6,0-7.1,0.1-10.7,0c-1.3,0-2.7-0.3-3.9-0.7c-4.1-1.3-6.4-4.5-6.4-8.7c0-4.3,2.3-7.7,6.3-9
	c1.1-0.4,2.4-0.7,3.5-0.7c3.9-0.1,7.8-0.1,11.7-0.1c0.2,0,0.5,0.1,0.8,0.2c0,0.9,0,1.8,0,2.8c-0.6,0-1.2,0.1-1.8,0.1
	c-2.9,0-5.7,0-8.6,0c-2,0-3.8,0.8-4.8,2.6c-0.4,0.7-0.5,1.5-0.9,2.6c5.6,0,10.9,0,16.2,0c0,1,0,1.9,0,2.9c-1.7,0.2-3.5,0.1-5.2,0.1
	c-1.7,0-3.4,0-5.2,0C515.9,197.6,514.2,197.6,512.3,197.6z"/>
<path class="st2" d="M135.7,186.4c0,0.7,0.1,1.2,0.1,1.7c0,0.5-0.1,1-0.1,1.6c-0.6,0-1.2,0.1-1.7,0.1c-2.7,0-5.4,0-8,0
	c-2,0-3.4,0.9-4.1,2.8c-0.8,2.1-1,4.2-0.3,6.4c0.8,2.3,2.3,3.4,4.7,3.5c2.6,0.1,5.2,0,7.9,0.1c0.5,0,1,0.1,1.6,0.1c0,1.1,0,2,0,3.1
	c-0.5,0.1-0.8,0.1-1.2,0.1c-3.3,0-6.5,0.1-9.8,0c-4.7-0.1-8-2.6-9.1-7c-0.5-2.2-0.4-4.4,0.4-6.6c1.5-3.8,4.5-5.4,8.3-5.8
	c0.9-0.1,1.8-0.1,2.7-0.1C129.9,186.3,132.7,186.4,135.7,186.4z"/>
<path class="st2" d="M481.4,186.6c0,1,0,1.8,0,2.8c-3,0-5.9,0-9,0c0,5.5,0,10.7,0,16.2c-1.9,0.2-3.5,0.2-5.4,0c0-5.4,0-10.6,0-16.1
	c-3,0-5.9,0-8.8,0c0-1.1,0-1.9,0-2.9C465.9,186.6,473.6,186.6,481.4,186.6z"/>
<path class="st2" d="M43.8,205.6c-1.9,0-3.7,0-5.6,0c0-6.4,0-12.7,0-19.2c1.8,0,3.5,0,5.6,0C43.8,192.8,43.8,199.2,43.8,205.6z"/>
</svg>
